# xmcd
#
# Track frame offsets: 
#        150
#        18259
#        35955
#        53385
#        68659
#        86173
#        101737
#        117219
#        134619
#        148661
#        166098
#        182434
#        196157
#        212960
#        224083
#        239069
#        254163
#        271359
#        290346
#        303518
#
# Disc length: 4361 seconds
#
# Revision: 1
# Processed by: cddbd v1.5.1PL2 Copyright (c) Steve Scherf et al.
# Submitted via: ExactAudioCopy v0.90b4
#
DISCID=3a110714
DTITLE=Carpenters - By Request
DYEAR=2000
DGENRE=Rock
TTITLE0=Yesterday Once More
TTITLE1=Road Ode
TTITLE2=I Need To Be In Love
TTITLE3=Mr.Guder
TTITLE4=You
TTITLE5=One Love
TTITLE6=Can't Smile Without You
TTITLE7=Happy
TTITLE8=We've Only Just Begun
TTITLE9=Superstar
TTITLE10=Rainy Days And Mondays
TTITLE11=Top Of The World
TTITLE12=(They Long To Be) Close To You
TTITLE13=Let Me Be The One
TTITLE14=I Can't Make Music
TTITLE15=Sing
TTITLE16=Only Yesterday
TTITLE17=Ticket To Ride
TTITLE18=Sometimes
TTITLE19=Look To Your Dreams
EXTD=
EXTT0=
EXTT1=
EXTT2=
EXTT3=
EXTT4=
EXTT5=
EXTT6=
EXTT7=
EXTT8=
EXTT9=
EXTT10=
EXTT11=
EXTT12=
EXTT13=
EXTT14=
EXTT15=
EXTT16=
EXTT17=
EXTT18=
EXTT19=
PLAYORDER=
